<?xml version="1.0" encoding="utf-8"?>
<!-- Generator: Adobe Illustrator 23.0.3, SVG Export Plug-In . SVG Version: 6.00 Build 0)  -->
<svg version="1.1" id="Layer_1" xmlns="http://www.w3.org/2000/svg" xmlns:xlink="http://www.w3.org/1999/xlink" x="0px" y="0px"
	 width="958px" height="249.4351196px" viewBox="0 0 958 249.4351196" style="enable-background:new 0 0 958 249.4351196;"
	 xml:space="preserve">
<style type="text/css">
	.st0{fill:#00B0B9;}
	.st1{fill:#002A3A;}
</style>
<g>
	<g>
		<g>
			<path class="st0" d="M139.0242615,18.7127018c0,10.1359234-8.4465942,18.5825253-18.5825195,18.5825253
				s-18.5825195-8.4466019-18.5825195-18.5825253s8.4466019-18.5825233,18.5825195-18.5825233
				S139.0242615,8.5767803,139.0242615,18.7127018z M120.4417419,52.4991074
				c-10.9805832,0-19.4271851,8.4466019-19.4271851,19.4271851s8.4466019,19.4271851,19.4271851,19.4271851
				s19.4271851-8.4466019,19.4271851-19.4271851S131.4223328,52.4991074,120.4417419,52.4991074z M120.4417419,104.8680344
				c-10.9805832,0-20.2718506,9.2912674-20.2718506,20.271843s9.2912674,20.2718353,20.271843,20.2718353
				s20.271843-9.2912598,20.271843-20.2718353S131.4223328,104.8680344,120.4417419,104.8680344z M120.4417419,158.0816345
				c-10.9805832,0-19.4271851,8.4466095-19.4271851,19.4271851s8.4466019,19.4271698,19.4271851,19.4271698
				s19.4271851-8.4465942,19.4271851-19.4271698C139.868927,167.372879,131.4223328,158.0816345,120.4417419,158.0816345z
				 M120.4417419,212.1398773c-10.1359177,0-18.5825195,8.4466095-18.5825195,18.5825348
				s8.4466019,18.5825348,18.5825195,18.5825348s18.5825195-8.4466095,18.5825195-18.5825348
				S130.5776672,212.1398773,120.4417419,212.1398773z M171.9660034,49.9651299
				c-11.8252411,0-21.9611664,10.1359253-21.9611664,21.9611626s10.1359253,21.9611664,21.9611664,21.9611664
				s21.9611664-10.1359177,21.9611664-21.9611664S183.7912598,49.9651299,171.9660034,49.9651299z M171.9660034,102.3340607
				c-12.6698914,0-22.8058319,10.1359253-22.8058319,22.8058243s10.1359406,22.8058243,22.8058319,22.8058243
				c12.6699066,0,22.8058319-10.1359253,22.8058319-22.8058243S184.63591,102.3340607,171.9660034,102.3340607z
				 M171.9660034,155.5476532c-11.8252411,0-21.9611664,10.1359253-21.9611664,21.9611664
				s10.1359253,21.9611664,21.9611664,21.9611664s21.9611664-10.1359253,21.9611664-21.9611664
				S183.7912598,155.5476532,171.9660034,155.5476532z M225.1796112,99.8000793
				c-13.5145721,0-25.3398132,10.9805832-25.3398132,25.3398056c0,13.5145645,10.9805756,25.3397903,25.3398132,25.3397903
				c14.3592224,0,25.339798-10.9805756,25.339798-25.339798C249.6747437,110.7806625,238.6941681,99.8000793,225.1796112,99.8000793
				z M68.0728149,55.0330887c-9.2912636,0-16.8932037,7.601944-16.8932037,16.8932037s7.6019402,16.8932037,16.8932037,16.8932037
				s16.8932037-7.6019363,16.8932037-16.8932037S77.3640823,55.0330887,68.0728149,55.0330887z M68.0728149,107.4020157
				c-10.1359215,0-17.7378654,7.601944-17.7378654,17.7378616s7.601944,17.7378693,17.7378654,17.7378693
				s17.7378693-7.601944,17.7378693-17.7378693C85.8106842,115.0039673,78.2087326,107.4020157,68.0728149,107.4020157z
				 M68.0728149,160.6156158c-9.2912636,0-16.8932037,7.6019287-16.8932037,16.8932037
				c0,9.2912598,7.6019402,16.8932037,16.8932037,16.8932037s16.8932037-7.601944,16.8932037-16.8932037
				C84.9660187,168.2175446,77.3640823,160.6156158,68.0728149,160.6156158z M15.7038822,109.935997
				C7.2572808,109.935997,0.5,116.6932831,0.5,125.1398849s6.7572813,15.2038803,15.2038822,15.2038803
				s15.2038822-6.7572784,15.2038822-15.2038803S24.1504841,109.935997,15.7038822,109.935997z"/>
		</g>
	</g>
	<g>
		<g>
			<path class="st1" d="M441.4126282,92.1981354c-1.6893311,0-3.3786621,1.6893158-3.3786621,3.3786392v132.6116638
				c0,1.6893158,1.6893311,3.3786316,3.3786621,3.3786316h16.0485535c1.6893311,0,3.3786316-1.6893311,3.3786316-3.3786316
				V95.5767822c0-1.6893234-1.6893005-3.3786392-3.3786316-3.3786392
				C457.4611816,92.198143,441.4126282,92.198143,441.4126282,92.1981354z"/>
			<g>
				<g>
					<path class="st1" d="M449.8592224,36.4505653c-8.4465942,0-15.2038879,6.7572861-15.2038879,15.2038879
						s6.7572937,15.2038841,15.2038879,15.2038841s15.2038574-6.7572823,15.2038574-15.2038841
						S458.3058167,36.4505653,449.8592224,36.4505653z"/>
				</g>
			</g>
			<path class="st1" d="M781.8106689,92.1981354c-1.6893311,0-3.3786621,1.6893158-3.3786621,3.3786392v132.6116638
				c0,1.6893158,1.68927,3.3786316,3.3786621,3.3786316h16.0485229c1.6893311,0,3.3786621-1.6893311,3.3786621-3.3786316V95.5767822
				c0-1.6893234-1.68927-3.3786392-3.3786621-3.3786392C797.8591919,92.198143,781.8106689,92.198143,781.8106689,92.1981354z"/>
			<g>
				<g>
					<path class="st1" d="M789.4125977,36.4505653c-8.4465942,0-15.2039185,6.7572861-15.2039185,15.2038879
						s6.7573242,15.2038841,15.2039185,15.2038841s15.2039185-6.7572823,15.2039185-15.2038841
						C804.6164551,43.2078476,797.8591919,36.4505653,789.4125977,36.4505653z"/>
				</g>
			</g>
			<path class="st1" d="M949.8980713,218.8971558c0.8446045-0.8446655,0.8446045-1.6893158,0.8446045-2.5339661l0,0
				c0-0.8446655,0-0.8446655,0-0.8446655s0-0.8446655-0.8446045-0.8446655c0,0-0.8446655-0.8446655-1.6893311-0.8446655
				s-0.8446655,0-1.68927,0h-4.2233276v11.8252411h1.6893311v-4.2232971h2.5339966l0,0l3.3786621,4.2232971h1.68927
				l-4.2233276-5.0679626C949.0534058,220.5864868,949.8980713,219.7418213,949.8980713,218.8971558z M943.9854126,219.7418213
				v-4.2232971h3.3786011c0.8446655,0,1.6893311,0,2.5340576,0.8446655c0.8446045,0,0.8446045,0.8446655,0.8446045,1.6893158l0,0
				c0,0.8446655,0,1.6893311-0.8446045,1.6893311c-0.8446655,0-1.6893311,0.8446655-2.5340576,0.8446655h-3.3786011V219.7418213z"/>
			<path class="st1" d="M946.5194092,208.7612457c-5.9125977,0-10.9806519,5.0679626-10.9806519,10.9805756
				c0,5.9126282,5.0679932,10.9805756,10.9806519,10.9805756S957.5,225.6544342,957.5,219.7418213
				C957.5,213.8291931,952.4320068,208.7612457,946.5194092,208.7612457z M946.5194092,229.8777466
				c-5.9125977,0-10.1359253-4.2232971-10.1359253-10.1359253s4.2233276-10.1359253,10.1359253-10.1359253
				s10.1358643,4.2232971,10.1358643,10.1359253S951.5873413,229.8777466,946.5194092,229.8777466z"/>
			<path class="st1" d="M573.1796265,114.1593018c1.68927,0,3.3786621-1.6893158,3.3786621-3.3786392V94.7321243
				c0-1.6893158-1.6893311-3.3786392-3.3786621-3.3786392h-33.786438V40.6738777c0-1.6893196-1.68927-3.378643-3.3786011-3.378643
				h-16.048584c-1.6893311,0-3.3786621,1.6893196-3.3786621,3.378643v50.6796074h-16.8931885
				c-1.6893311,0-3.3786621,1.6893234-3.3786621,3.3786392v16.0485382c0,1.6893234,1.6893311,3.3786392,3.3786621,3.3786392
				h16.8931885v76.8640747c0,23.6504822,16.048584,38.8543701,38.8543701,38.8543701h16.8931885
				c1.6893311,0,3.3786621-1.6893158,3.3786621-3.3786316v-16.0485382c0-1.6893311-1.68927-3.3786469-3.3786621-3.3786469
				H557.975708c-10.9805908,0-18.5825195-7.6019287-18.5825195-19.4271698v-74.330101h33.786438V114.1593018z"/>
			<path class="st1" d="M909.3543091,114.1593018c1.6893311,0,3.3786621-1.6893158,3.3786621-3.3786392V94.7321243
				c0-1.6893158-1.68927-3.3786392-3.3786621-3.3786392h-33.786377V40.6738777c0-1.6893196-1.6893311-3.378643-3.3786621-3.378643
				h-16.048584c-1.68927,0-3.3786011,1.6893196-3.3786011,3.378643v50.6796074h-16.8932495
				c-1.68927,0-3.3786011,1.6893234-3.3786011,3.3786392v16.0485382c0,1.6893234,1.68927,3.3786392,3.3786011,3.3786392h16.8932495
				v76.8640747c0,23.6504822,16.0485229,38.8543701,38.8543091,38.8543701h16.8932495
				c1.68927,0,3.3786011-1.6893158,3.3786011-3.3786316v-16.0485382c0-1.6893311-1.68927-3.3786469-3.3786011-3.3786469h-15.2039185
				c-10.9806519,0-18.5825195-7.6019287-18.5825195-19.4271698v-74.330101h34.6311035V114.1593018z"/>
			<path class="st1" d="M340.8980408,114.1593018v113.1844635c0,1.6893158,1.6893311,3.3786316,3.3786621,3.3786316h16.0485535
				c1.6893311,0,3.3786621-1.6893311,3.3786621-3.3786316V114.1593018h37.1650391
				c1.6893311,0,3.3786621-1.6893158,3.3786621-3.3786392V94.7321243c0-1.6893158-1.6893311-3.3786392-3.3786621-3.3786392
				h-37.1650696V61.7903709c0-11.8252411,8.4465942-20.271843,18.5825195-20.271843h18.5825195
				c1.6893311,0,3.3786621-1.6893196,3.3786621-3.378643V22.091341c0-1.6893196-1.6893311-3.3786411-3.3786621-3.3786411h-17.737854
				c-23.6504822,0-42.2330017,19.4271851-42.2330017,42.2330093v30.4077606h-16.8931885
				c-1.6893311,0-3.3786621,1.6893158-3.3786621,3.3786392v16.0485382c0,1.6893158,1.6893311,3.3786392,3.3786621,3.3786392
				C324.0048828,114.1592865,340.8980408,114.1592865,340.8980408,114.1593018z"/>
		</g>
		<path class="st1" d="M727.7523804,108.2466812c-12.6698608-13.5145645-30.4077148-21.1165009-48.9902954-21.1165009
			c-17.737854,0-35.475708,7.6019363-46.4562988,18.5825195V21.2466831c0-1.6893215-1.6893311-3.378643-3.3786621-3.378643
			H612.87854c-1.68927,0-3.3786621,1.6893215-3.3786621,3.378643v139.368927
			c0,51.5242615,34.6311035,74.3300781,68.4174805,74.3300781c33.786438,0,68.4174805-22.8058319,68.4174805-74.3300781
			C747.1796265,140.3437653,740.4223022,121.7612381,727.7523804,108.2466812z M678.762146,213.8291931
			c-33.786438,0-46.4562988-27.029129-46.4562988-52.3689423c0-31.2524109,18.5824585-51.5242691,46.4562988-51.5242691
			c27.8737793,0,46.4562988,21.1165085,46.4562988,51.5242691
			C724.3737183,186.8000793,712.5485229,213.8291931,678.762146,213.8291931z"/>
	</g>
</g>
</svg>
